<svg xmlns="http://www.w3.org/2000/svg" viewBox="0 0 2400 180" preserveAspectRatio="xMidYMid slice" shape-rendering="crispEdges"><defs>
  <linearGradient id="sky" x1="0" y1="0" x2="0" y2="1"><stop stop-color="#2f74c8"/><stop offset=".52" stop-color="#70b7ed"/><stop offset="1" stop-color="#dff4ff"/></linearGradient>
  <linearGradient id="rock" x1="0" y1="0" x2="0" y2="1"><stop stop-color="#776d62"/><stop offset="1" stop-color="#343943"/></linearGradient>
  <linearGradient id="gold" x1="0" y1="0" x2="0" y2="1"><stop stop-color="#fff0a5"/><stop offset="1" stop-color="#c89939"/></linearGradient></defs>
  <rect width="2400" height="180" fill="url(#sky)"/><g fill="#dff5ff" opacity=".55"><rect x="595" y="8" width="2" height="2"/><rect x="1956" y="4" width="6" height="2"/><rect x="1694" y="3" width="3" height="2"/><rect x="870" y="79" width="6" height="2"/><rect x="2151" y="36" width="2" height="2"/><rect x="2312" y="41" width="5" height="2"/><rect x="1536" y="12" width="6" height="2"/><rect x="2374" y="16" width="4" height="2"/><rect x="1564" y="88" width="4" height="2"/><rect x="939" y="51" width="3" height="2"/><rect x="1341" y="76" width="3" height="2"/><rect x="420" y="28" width="3" height="2"/><rect x="392" y="60" width="6" height="2"/><rect x="256" y="85" width="5" height="2"/><rect x="2261" y="6" width="6" height="2"/><rect x="328" y="36" width="4" height="2"/><rect x="1267" y="45" width="2" height="2"/><rect x="1953" y="42" width="5" height="2"/><rect x="1473" y="33" width="3" height="2"/><rect x="2358" y="46" width="4" height="2"/><rect x="527" y="15" width="2" height="2"/><rect x="650" y="48" width="5" height="2"/><rect x="1948" y="83" width="3" height="2"/><rect x="2226" y="64" width="6" height="2"/><rect x="580" y="85" width="5" height="2"/><rect x="1130" y="34" width="6" height="2"/><rect x="336" y="53" width="4" height="2"/><rect x="2275" y="28" width="6" height="2"/><rect x="274" y="73" width="5" height="2"/><rect x="1047" y="89" width="4" height="2"/><rect x="281" y="24" width="5" height="2"/><rect x="709" y="90" width="4" height="2"/><rect x="1325" y="31" width="6" height="2"/><rect x="1644" y="12" width="6" height="2"/><rect x="775" y="32" width="5" height="2"/><rect x="1309" y="90" width="4" height="2"/><rect x="2271" y="26" width="5" height="2"/><rect x="1566" y="46" width="3" height="2"/><rect x="882" y="50" width="3" height="2"/><rect x="235" y="4" width="2" height="2"/><rect x="9" y="70" width="3" height="2"/><rect x="1504" y="66" width="3" height="2"/><rect x="405" y="11" width="5" height="2"/><rect x="729" y="74" width="4" height="2"/><rect x="387" y="8" width="2" height="2"/><rect x="2362" y="10" width="6" height="2"/><rect x="663" y="25" width="4" height="2"/><rect x="1537" y="30" width="5" height="2"/><rect x="1501" y="19" width="4" height="2"/><rect x="1886" y="31" width="6" height="2"/><rect x="531" y="30" width="3" height="2"/><rect x="1456" y="51" width="6" height="2"/><rect x="375" y="24" width="4" height="2"/><rect x="35" y="14" width="2" height="2"/><rect x="315" y="84" width="5" height="2"/><rect x="622" y="49" width="3" height="2"/><rect x="2267" y="84" width="5" height="2"/><rect x="32" y="91" width="2" height="2"/><rect x="217" y="23" width="6" height="2"/><rect x="1345" y="68" width="5" height="2"/><rect x="486" y="39" width="3" height="2"/><rect x="2197" y="20" width="6" height="2"/><rect x="2357" y="28" width="3" height="2"/><rect x="2321" y="91" width="4" height="2"/><rect x="756" y="51" width="3" height="2"/><rect x="277" y="18" width="4" height="2"/><rect x="1909" y="39" width="6" height="2"/><rect x="2206" y="56" width="5" height="2"/><rect x="1621" y="74" width="6" height="2"/><rect x="184" y="32" width="5" height="2"/></g><circle cx="1240" cy="42" r="30" fill="#fff7c5"/><circle cx="1240" cy="42" r="47" fill="none" stroke="#ffe488" stroke-width="8" opacity=".28"/><circle cx="1240" cy="42" r="62" fill="none" stroke="#ffe488" stroke-width="3" opacity=".2"/><g fill="#f7fbff" opacity="0.9"><rect x="40" y="30" width="72" height="14"/><rect x="53" y="22" width="44" height="19"/><rect x="86" y="26" width="56" height="16"/><rect x="116" y="32" width="35" height="12"/></g><g fill="#f7fbff" opacity="0.9"><rect x="300" y="13" width="63" height="13"/><rect x="311" y="6" width="39" height="17"/><rect x="341" y="10" width="49" height="14"/><rect x="367" y="15" width="31" height="11"/></g><g fill="#f7fbff" opacity="0.9"><rect x="650" y="25" width="59" height="12"/><rect x="660" y="18" width="36" height="16"/><rect x="688" y="21" width="46" height="13"/><rect x="712" y="26" width="29" height="10"/></g><g fill="#f7fbff" opacity="0.9"><rect x="1510" y="15" width="65" height="13"/><rect x="1522" y="8" width="40" height="17"/><rect x="1552" y="12" width="50" height="14"/><rect x="1578" y="17" width="32" height="11"/></g><g fill="#f7fbff" opacity="0.9"><rect x="1960" y="26" width="68" height="14"/><rect x="1972" y="18" width="41" height="18"/><rect x="2004" y="22" width="53" height="15"/><rect x="2031" y="28" width="33" height="11"/></g><g fill="#f7fbff" opacity="0.9"><rect x="2190" y="11" width="63" height="13"/><rect x="2201" y="4" width="39" height="17"/><rect x="2231" y="8" width="49" height="14"/><rect x="2257" y="13" width="31" height="11"/></g><g><polygon points="90,92 340,92 305,130 245,144 195,138 122,128" fill="url(#rock)"/>
      <rect x="90" y="85" width="250" height="9" fill="#436f38"/>
      <rect x="98" y="80" width="62.5" height="6" fill="#6fa54c"/><rect x="100" y="70" width="4" height="15" fill="#3a5134"/><rect x="93" y="65" width="18" height="8" fill="#5b9147"/><rect x="138.33333333333334" y="70" width="4" height="15" fill="#3a5134"/><rect x="131.33333333333334" y="65" width="18" height="8" fill="#5b9147"/><rect x="176.66666666666669" y="69" width="4" height="16" fill="#3a5134"/><rect x="169.66666666666669" y="64" width="18" height="8" fill="#5b9147"/><rect x="215" y="75" width="4" height="10" fill="#3a5134"/><rect x="208" y="70" width="18" height="8" fill="#5b9147"/><rect x="253.33333333333334" y="67" width="4" height="18" fill="#3a5134"/><rect x="246.33333333333334" y="62" width="18" height="8" fill="#5b9147"/><rect x="291.66666666666663" y="75" width="4" height="10" fill="#3a5134"/><rect x="284.66666666666663" y="70" width="18" height="8" fill="#5b9147"/></g><g><polygon points="470,73 680,73 645,118 600.2,132 558.2,126 502,116" fill="url(#rock)"/>
      <rect x="470" y="66" width="210" height="9" fill="#436f38"/>
      <rect x="478" y="61" width="52.5" height="6" fill="#6fa54c"/><rect x="480" y="52" width="4" height="14" fill="#3a5134"/><rect x="473" y="47" width="18" height="8" fill="#5b9147"/><rect x="518" y="52" width="4" height="14" fill="#3a5134"/><rect x="511" y="47" width="18" height="8" fill="#5b9147"/><rect x="556" y="55" width="4" height="11" fill="#3a5134"/><rect x="549" y="50" width="18" height="8" fill="#5b9147"/><rect x="594" y="57" width="4" height="9" fill="#3a5134"/><rect x="587" y="52" width="18" height="8" fill="#5b9147"/><rect x="632" y="56" width="4" height="10" fill="#3a5134"/><rect x="625" y="51" width="18" height="8" fill="#5b9147"/></g><g><polygon points="1770,66 1990,66 1955,112 1906.4,126 1862.4,120 1802,110" fill="url(#rock)"/>
      <rect x="1770" y="59" width="220" height="9" fill="#436f38"/>
      <rect x="1778" y="54" width="55" height="6" fill="#6fa54c"/><rect x="1780" y="44" width="4" height="15" fill="#3a5134"/><rect x="1773" y="39" width="18" height="8" fill="#5b9147"/><rect x="1813.3333333333333" y="41" width="4" height="18" fill="#3a5134"/><rect x="1806.3333333333333" y="36" width="18" height="8" fill="#5b9147"/><rect x="1846.6666666666667" y="44" width="4" height="15" fill="#3a5134"/><rect x="1839.6666666666667" y="39" width="18" height="8" fill="#5b9147"/><rect x="1880" y="47" width="4" height="12" fill="#3a5134"/><rect x="1873" y="42" width="18" height="8" fill="#5b9147"/><rect x="1913.3333333333333" y="50" width="4" height="9" fill="#3a5134"/><rect x="1906.3333333333333" y="45" width="18" height="8" fill="#5b9147"/><rect x="1946.6666666666667" y="49" width="4" height="10" fill="#3a5134"/><rect x="1939.6666666666667" y="44" width="18" height="8" fill="#5b9147"/></g><g><polygon points="2070,90 2300,90 2265,124 2212.6,138 2166.6,132 2102,122" fill="url(#rock)"/>
      <rect x="2070" y="83" width="230" height="9" fill="#436f38"/>
      <rect x="2078" y="78" width="57.5" height="6" fill="#6fa54c"/><rect x="2080" y="66" width="4" height="17" fill="#3a5134"/><rect x="2073" y="61" width="18" height="8" fill="#5b9147"/><rect x="2115" y="68" width="4" height="15" fill="#3a5134"/><rect x="2108" y="63" width="18" height="8" fill="#5b9147"/><rect x="2150" y="72" width="4" height="11" fill="#3a5134"/><rect x="2143" y="67" width="18" height="8" fill="#5b9147"/><rect x="2185" y="73" width="4" height="10" fill="#3a5134"/><rect x="2178" y="68" width="18" height="8" fill="#5b9147"/><rect x="2220" y="71" width="4" height="12" fill="#3a5134"/><rect x="2213" y="66" width="18" height="8" fill="#5b9147"/><rect x="2255" y="69" width="4" height="14" fill="#3a5134"/><rect x="2248" y="64" width="18" height="8" fill="#5b9147"/></g><rect x="190" y="94" width="16" height="70" fill="#bdefff" opacity=".9"/><rect x="194" y="94" width="3" height="70" fill="#fff" opacity=".85"/><rect x="560" y="75" width="13" height="96" fill="#bdefff" opacity=".9"/><rect x="564" y="75" width="3" height="96" fill="#fff" opacity=".85"/><rect x="1865" y="68" width="12" height="100" fill="#bdefff" opacity=".9"/><rect x="1869" y="68" width="3" height="100" fill="#fff" opacity=".85"/><rect x="2180" y="92" width="13" height="72" fill="#bdefff" opacity=".9"/><rect x="2184" y="92" width="3" height="72" fill="#fff" opacity=".85"/><g fill="#f4df9b" stroke="#b98535" stroke-width="2"><rect x="905" y="116" width="690" height="12" fill="#e1bd65"/><rect x="950" y="43" width="18" height="73" fill="#fff0b7"/><polygon points="947,43 959,33 971,43" fill="#d8a647"/><rect x="957" y="27" width="4" height="16" fill="#fff3bd"/><rect x="976" y="37" width="21" height="79" fill="#ead18b"/><polygon points="973,37 986.5,27 1000,37" fill="#d8a647"/><rect x="1002" y="64" width="17" height="52" fill="#ead18b"/><polygon points="999,64 1010.5,54 1022,64" fill="#d8a647"/><rect x="1028" y="66" width="22" height="50" fill="#fff0b7"/><polygon points="1025,66 1039,56 1053,66" fill="#d8a647"/><rect x="1054" y="60" width="18" height="56" fill="#ead18b"/><polygon points="1051,60 1063,50 1075,60" fill="#d8a647"/><rect x="1061" y="44" width="4" height="16" fill="#fff3bd"/><rect x="1080" y="59" width="14" height="57" fill="#ead18b"/><polygon points="1077,59 1087,49 1097,59" fill="#d8a647"/><rect x="1106" y="60" width="19" height="56" fill="#fff0b7"/><polygon points="1103,60 1115.5,50 1128,60" fill="#d8a647"/><rect x="1132" y="47" width="18" height="69" fill="#ead18b"/><polygon points="1129,47 1141,37 1153,47" fill="#d8a647"/><rect x="1158" y="80" width="18" height="36" fill="#ead18b"/><polygon points="1155,80 1167,70 1179,80" fill="#d8a647"/><rect x="1165" y="64" width="4" height="16" fill="#fff3bd"/><rect x="1184" y="82" width="18" height="34" fill="#fff0b7"/><polygon points="1181,82 1193,72 1205,82" fill="#d8a647"/><rect x="1210" y="57" width="21" height="59" fill="#ead18b"/><polygon points="1207,57 1220.5,47 1234,57" fill="#d8a647"/><rect x="1236" y="56" width="18" height="60" fill="#ead18b"/><polygon points="1233,56 1245,46 1257,56" fill="#d8a647"/><rect x="1262" y="70" width="13" height="46" fill="#fff0b7"/><polygon points="1259,70 1268.5,60 1278,70" fill="#d8a647"/><rect x="1266.5" y="54" width="4" height="16" fill="#fff3bd"/><rect x="1288" y="79" width="22" height="37" fill="#ead18b"/><polygon points="1285,79 1299,69 1313,79" fill="#d8a647"/><rect x="1314" y="73" width="15" height="43" fill="#ead18b"/><polygon points="1311,73 1321.5,63 1332,73" fill="#d8a647"/><rect x="1340" y="64" width="15" height="52" fill="#fff0b7"/><polygon points="1337,64 1347.5,54 1358,64" fill="#d8a647"/><rect x="1366" y="66" width="23" height="50" fill="#ead18b"/><polygon points="1363,66 1377.5,56 1392,66" fill="#d8a647"/><rect x="1375.5" y="50" width="4" height="16" fill="#fff3bd"/><rect x="1392" y="61" width="14" height="55" fill="#ead18b"/><polygon points="1389,61 1399,51 1409,61" fill="#d8a647"/><rect x="1418" y="62" width="14" height="54" fill="#fff0b7"/><polygon points="1415,62 1425,52 1435,62" fill="#d8a647"/><rect x="1444" y="76" width="17" height="40" fill="#ead18b"/><polygon points="1441,76 1452.5,66 1464,76" fill="#d8a647"/><rect x="1470" y="35" width="22" height="81" fill="#ead18b"/><polygon points="1467,35 1481,25 1495,35" fill="#d8a647"/><rect x="1479" y="19" width="4" height="16" fill="#fff3bd"/><rect x="1496" y="55" width="19" height="61" fill="#fff0b7"/><polygon points="1493,55 1505.5,45 1518,55" fill="#d8a647"/><rect x="1522" y="68" width="17" height="48" fill="#ead18b"/><polygon points="1519,68 1530.5,58 1542,68" fill="#d8a647"/></g><g fill="#d7c585"><rect x="640" y="127" width="310" height="6"/><rect x="1590" y="124" width="310" height="6"/><rect x="655" y="133" width="5" height="34"/><rect x="697" y="133" width="5" height="34"/><rect x="739" y="133" width="5" height="34"/><rect x="781" y="133" width="5" height="34"/><rect x="823" y="133" width="5" height="34"/><rect x="865" y="133" width="5" height="34"/><rect x="907" y="133" width="5" height="34"/><rect x="1605" y="130" width="5" height="37"/><rect x="1647" y="130" width="5" height="37"/><rect x="1689" y="130" width="5" height="37"/><rect x="1731" y="130" width="5" height="37"/><rect x="1773" y="130" width="5" height="37"/><rect x="1815" y="130" width="5" height="37"/><rect x="1857" y="130" width="5" height="37"/></g><g fill="#f7fbff" opacity=".95"><rect x="0" y="150" width="460" height="30"/><rect x="1940" y="149" width="460" height="31"/></g>
  <g fill="#e3d2a0"><rect x="22" y="52" width="18" height="92"/><rect x="55" y="42" width="21" height="101"/><rect x="2325" y="46" width="20" height="98"/><rect x="2360" y="58" width="18" height="87"/></g>
  <g fill="#315f36"><rect x="117" y="157" width="10" height="11"/><rect x="1" y="156" width="10" height="12"/><rect x="291" y="151" width="14" height="15"/><rect x="299" y="124" width="14" height="5"/><rect x="171" y="133" width="15" height="9"/><rect x="355" y="131" width="20" height="11"/><rect x="141" y="155" width="19" height="6"/><rect x="4" y="157" width="13" height="14"/><rect x="6" y="151" width="9" height="15"/><rect x="288" y="131" width="24" height="13"/><rect x="294" y="131" width="19" height="13"/><rect x="298" y="157" width="12" height="14"/><rect x="146" y="138" width="17" height="13"/><rect x="121" y="144" width="25" height="15"/><rect x="183" y="157" width="16" height="6"/><rect x="8" y="145" width="19" height="11"/><rect x="74" y="150" width="12" height="10"/><rect x="330" y="151" width="20" height="15"/><rect x="303" y="124" width="9" height="7"/><rect x="31" y="148" width="11" height="9"/><rect x="163" y="147" width="13" height="10"/><rect x="50" y="160" width="14" height="6"/><rect x="335" y="134" width="22" height="10"/><rect x="2330" y="152" width="11" height="12"/><rect x="2190" y="158" width="24" height="14"/><rect x="2159" y="152" width="11" height="13"/><rect x="2332" y="130" width="24" height="10"/><rect x="2266" y="133" width="11" height="10"/><rect x="2048" y="140" width="9" height="13"/><rect x="2178" y="119" width="8" height="6"/><rect x="2281" y="161" width="13" height="15"/><rect x="2256" y="141" width="17" height="11"/><rect x="2265" y="151" width="10" height="5"/><rect x="2321" y="145" width="17" height="14"/><rect x="2247" y="146" width="22" height="10"/><rect x="2199" y="156" width="23" height="11"/><rect x="2049" y="161" width="11" height="7"/><rect x="2293" y="127" width="12" height="10"/><rect x="2317" y="135" width="8" height="10"/><rect x="2279" y="127" width="21" height="14"/><rect x="2372" y="130" width="24" height="14"/><rect x="2099" y="129" width="21" height="11"/><rect x="2264" y="122" width="21" height="11"/><rect x="2229" y="139" width="13" height="7"/><rect x="2192" y="139" width="23" height="5"/></g></svg>