<svg xmlns="http://www.w3.org/2000/svg" viewBox="0 0 1600 120" preserveAspectRatio="xMidYMid slice" shape-rendering="crispEdges">
<defs><linearGradient id="sky" x1="0" y1="0" x2="0" y2="1"><stop stop-color="#4b84b5"/><stop offset=".65" stop-color="#9bc6db"/><stop offset="1" stop-color="#d7dfcf"/></linearGradient></defs>
<rect width="1600" height="120" fill="url(#sky)"/>
<g fill="#eef0e5" opacity=".9"><rect x="40" y="30" width="135" height="12"/><rect x="86" y="23" width="76" height="9"/><rect x="420" y="24" width="124" height="11"/><rect x="1185" y="29" width="145" height="12"/></g>
<g fill="#607e91"><polygon points="180,76 330,23 470,76"/><polygon points="385,76 530,37 670,76"/><polygon points="850,76 1010,20 1170,76"/><polygon points="1080,76 1210,40 1350,76"/></g>
<g fill="#41656a"><polygon points="0,84 180,51 340,84"/><polygon points="1260,84 1460,43 1600,80 1600,120 1260,120"/></g>
<rect y="77" width="1600" height="43" fill="#53754d"/>
<g fill="#77955a"><rect y="86" width="1600" height="34"/><rect x="650" y="78" width="300" height="8"/></g>
<g fill="#263f33"><rect x="0" y="78" width="150" height="42"/><rect x="1450" y="76" width="150" height="44"/></g>
<g fill="#d2c09b"><rect x="286" y="65" width="12" height="23"/><rect x="303" y="58" width="36" height="30"/><rect x="315" y="44" width="12" height="14"/><rect x="347" y="69" width="33" height="19"/><rect x="389" y="65" width="40" height="23"/></g>
<g fill="#a85e45"><rect x="301" y="55" width="40" height="5"/><rect x="344" y="66" width="38" height="5"/><rect x="386" y="62" width="46" height="5"/></g>
<path d="M690 120V92h26V80h18v40h48V89h20v31h26V85h18v35h55" fill="#86aec2"/>
<g fill="#c4b68e"><rect x="980" y="77" width="260" height="5"/><rect x="1004" y="82" width="5" height="24"/><rect x="1060" y="82" width="5" height="24"/><rect x="1116" y="82" width="5" height="24"/><rect x="1172" y="82" width="5" height="24"/><rect x="1228" y="82" width="5" height="24"/></g>
<rect y="108" width="1600" height="12" fill="#334d36"/>
</svg>